{"asset":{"version":"2.0","generator":"Blockbench 3.7.4 glTF exporter"},"scenes":[{"nodes":[17],"name":"blockbench_export"}],"scene":0,"nodes":[{"name":"ede97fb9-9a4d-8010-efc6-180a496a2df2","mesh":0},{"translation":[-6.499999999999998,-11.5,-7.5],"name":"wheel1","children":[0]},{"name":"763484d6-1225-605b-6ccb-cf44b2ed0662","mesh":1},{"translation":[-6.499999999999998,-11.5,4.5],"name":"wheel2","children":[2]},{"translation":[-0.024999999999999994,0,0],"name":"left_wheels","children":[1,3]},{"name":"bceb03f3-100d-9e6b-34b9-e91560c1a54a","mesh":2},{"translation":[6.5,-11.5,-7.5],"name":"wheel3","children":[5]},{"name":"f5f8be9f-206d-f94a-9634-05058ca8d99f","mesh":3},{"translation":[6.5,-11.5,4.5],"name":"wheel4","children":[7]},{"translation":[0.025,0,0],"name":"right_wheels","children":[6,8]},{"name":"7f61b447-82f0-53ed-16ac-b1b53b5bcdb2","mesh":4},{"rotation":[0.19509032201612825,0,0,0.9807852804032304],"translation":[-5.25,-6,9],"name":"fba22acc-161c-aab5-1d86-8e72c7a1a5f4","mesh":5},{"translation":[0,-7.5,1.5],"name":"d1ac9450-7d11-bcaa-c2cf-cf7d499d4280","mesh":6},{"rotation":[0.3007057995042731,0,0,0.9537169507482269],"translation":[-6.5,3.3868598462276935,9.568793963204715],"name":"3c4daa87-7801-f99b-efb6-d0ff6a3c30fe","mesh":7},{"rotation":[0.3007057995042731,0,0,0.9537169507482269],"translation":[-5.5,3.3868598462276935,9.568793963204715],"name":"c8760f1a-a4f4-a100-7356-1a90498d4c17","mesh":8},{"rotation":[0.3007057995042731,0,0,0.9537169507482269],"translation":[6.5,3.3868598462276935,9.568793963204715],"name":"96d25d99-57a8-2828-c816-48e54d21ed21","mesh":9},{"rotation":[0.19509032201612825,0,0,0.9807852804032304],"translation":[5.25,-6,9],"name":"2a282b53-cedf-ab05-4310-511811449d66","mesh":10},{"translation":[0,13,2],"name":"shoppingcart","children":[4,9,10,11,12,13,14,15,16]}],"bufferViews":[{"buffer":0,"byteOffset":0,"byteLength":432,"target":34962,"byteStride":12},{"buffer":0,"byteOffset":432,"byteLength":432,"target":34962,"byteStride":12},{"buffer":0,"byteOffset":864,"byteLength":288,"target":34962,"byteStride":8},{"buffer":0,"byteOffset":1152,"byteLength":432,"target":34962,"byteStride":12},{"buffer":0,"byteOffset":1584,"byteLength":432,"target":34962,"byteStride":12},{"buffer":0,"byteOffset":2016,"byteLength":288,"target":34962,"byteStride":8},{"buffer":0,"byteOffset":2304,"byteLength":432,"target":34962,"byteStride":12},{"buffer":0,"byteOffset":2736,"byteLength":432,"target":34962,"byteStride":12},{"buffer":0,"byteOffset":3168,"byteLength":288,"target":34962,"byteStride":8},{"buffer":0,"byteOffset":3456,"byteLength":432,"target":34962,"byteStride":12},{"buffer":0,"byteOffset":3888,"byteLength":432,"target":34962,"byteStride":12},{"buffer":0,"byteOffset":4320,"byteLength":288,"target":34962,"byteStride":8},{"buffer":0,"byteOffset":4608,"byteLength":432,"target":34962,"byteStride":12},{"buffer":0,"byteOffset":5040,"byteLength":432,"target":34962,"byteStride":12},{"buffer":0,"byteOffset":5472,"byteLength":288,"target":34962,"byteStride":8},{"buffer":0,"byteOffset":5760,"byteLength":432,"target":34962,"byteStride":12},{"buffer":0,"byteOffset":6192,"byteLength":432,"target":34962,"byteStride":12},{"buffer":0,"byteOffset":6624,"byteLength":288,"target":34962,"byteStride":8},{"buffer":0,"byteOffset":6912,"byteLength":432,"target":34962,"byteStride":12},{"buffer":0,"byteOffset":7344,"byteLength":432,"target":34962,"byteStride":12},{"buffer":0,"byteOffset":7776,"byteLength":288,"target":34962,"byteStride":8},{"buffer":0,"byteOffset":8064,"byteLength":432,"target":34962,"byteStride":12},{"buffer":0,"byteOffset":8496,"byteLength":432,"target":34962,"byteStride":12},{"buffer":0,"byteOffset":8928,"byteLength":288,"target":34962,"byteStride":8},{"buffer":0,"byteOffset":9216,"byteLength":432,"target":34962,"byteStride":12},{"buffer":0,"byteOffset":9648,"byteLength":432,"target":34962,"byteStride":12},{"buffer":0,"byteOffset":10080,"byteLength":288,"target":34962,"byteStride":8},{"buffer":0,"byteOffset":10368,"byteLength":432,"target":34962,"byteStride":12},{"buffer":0,"byteOffset":10800,"byteLength":432,"target":34962,"byteStride":12},{"buffer":0,"byteOffset":11232,"byteLength":288,"target":34962,"byteStride":8},{"buffer":0,"byteOffset":11520,"byteLength":432,"target":34962,"byteStride":12},{"buffer":0,"byteOffset":11952,"byteLength":432,"target":34962,"byteStride":12},{"buffer":0,"byteOffset":12384,"byteLength":288,"target":34962,"byteStride":8}],"buffers":[{"byteLength":12672,"uri":"data:application/octet-stream;base64,"}],"accessors":[{"bufferView":0,"componentType":5126,"count":36,"max":[0.5,1.5,1.5],"min":[-0.5,-1.5,-1.5],"type":"VEC3"},{"bufferView":1,"componentType":5126,"count":36,"max":[1,1,1],"min":[-1,-1,-1],"type":"VEC3"},{"bufferView":2,"componentType":5126,"count":36,"max":[0.1092529296875,0.9530029296875],"min":[0.0469970703125,0.9063720703125],"type":"VEC2"},{"bufferView":3,"componentType":5126,"count":36,"max":[0.5,1.5,1.5],"min":[-0.5,-1.5,-1.5],"type":"VEC3"},{"bufferView":4,"componentType":5126,"count":36,"max":[1,1,1],"min":[-1,-1,-1],"type":"VEC3"},{"bufferView":5,"componentType":5126,"count":36,"max":[0.0623779296875,0.9998779296875],"min":[0.0001220703125,0.9532470703125],"type":"VEC2"},{"bufferView":6,"componentType":5126,"count":36,"max":[0.5,1.5,1.5],"min":[-0.5,-1.5,-1.5],"type":"VEC3"},{"bufferView":7,"componentType":5126,"count":36,"max":[1,1,1],"min":[-1,-1,-1],"type":"VEC3"},{"bufferView":8,"componentType":5126,"count":36,"max":[0.1092529296875,0.9530029296875],"min":[0.0469970703125,0.9063720703125],"type":"VEC2"},{"bufferView":9,"componentType":5126,"count":36,"max":[0.5,1.5,1.5],"min":[-0.5,-1.5,-1.5],"type":"VEC3"},{"bufferView":10,"componentType":5126,"count":36,"max":[1,1,1],"min":[-1,-1,-1],"type":"VEC3"},{"bufferView":11,"componentType":5126,"count":36,"max":[0.0623779296875,0.9998779296875],"min":[0.0001220703125,0.9532470703125],"type":"VEC2"},{"bufferView":12,"componentType":5126,"count":36,"max":[7.000999927520752,3.000999927520752,10.00100040435791],"min":[-7.000999927520752,-6.000999927520752,-11.00100040435791],"type":"VEC3"},{"bufferView":13,"componentType":5126,"count":36,"max":[1,1,1],"min":[-1,-1,-1],"type":"VEC3"},{"bufferView":14,"componentType":5126,"count":36,"max":[0.5467529296875,0.9998779296875],"min":[0.0001220703125,0.7657470703125],"type":"VEC2"},{"bufferView":15,"componentType":5126,"count":36,"max":[0.5,0,0.5],"min":[-0.5,-6,-0.5],"type":"VEC3"},{"bufferView":16,"componentType":5126,"count":36,"max":[1,1,1],"min":[-1,-1,-1],"type":"VEC3"},{"bufferView":17,"componentType":5126,"count":36,"max":[0.0311279296875,0.9451904296875],"min":[0.0001220703125,0.8907470703125],"type":"VEC2"},{"bufferView":18,"componentType":5126,"count":36,"max":[6,1.5,6],"min":[-6,-4,-12],"type":"VEC3"},{"bufferView":19,"componentType":5126,"count":36,"max":[1,1,1],"min":[-1,-1,-1],"type":"VEC3"},{"bufferView":20,"componentType":5126,"count":36,"max":[0.4686279296875,0.7576904296875],"min":[0.0001220703125,0.5782470703125],"type":"VEC2"},{"bufferView":21,"componentType":5126,"count":36,"max":[0.5,3.057603597640991,1.0464272499084473],"min":[-0.5,-0.9423964619636536,0.04642728716135025],"type":"VEC3"},{"bufferView":22,"componentType":5126,"count":36,"max":[1,1,1],"min":[-1,-1,-1],"type":"VEC3"},{"bufferView":23,"componentType":5126,"count":36,"max":[0.1014404296875,0.9998779296875],"min":[0.0704345703125,0.9610595703125],"type":"VEC2"},{"bufferView":24,"componentType":5126,"count":36,"max":[11.5,3.057603597640991,1.0464272499084473],"min":[-0.5,2.057603597640991,0.04642728716135025],"type":"VEC3"},{"bufferView":25,"componentType":5126,"count":36,"max":[1,1,1],"min":[-1,-1,-1],"type":"VEC3"},{"bufferView":26,"componentType":5126,"count":36,"max":[0.5389404296875,0.6639404296875],"min":[0.3360595703125,0.6485595703125],"type":"VEC2"},{"bufferView":27,"componentType":5126,"count":36,"max":[0.5,3.057603597640991,1.0464272499084473],"min":[-0.5,-0.9423964619636536,0.04642728716135025],"type":"VEC3"},{"bufferView":28,"componentType":5126,"count":36,"max":[1,1,1],"min":[-1,-1,-1],"type":"VEC3"},{"bufferView":29,"componentType":5126,"count":36,"max":[0.1014404296875,0.9998779296875],"min":[0.0704345703125,0.9610595703125],"type":"VEC2"},{"bufferView":30,"componentType":5126,"count":36,"max":[0.5,0,0.5],"min":[-0.5,-6,-0.5],"type":"VEC3"},{"bufferView":31,"componentType":5126,"count":36,"max":[1,1,1],"min":[-1,-1,-1],"type":"VEC3"},{"bufferView":32,"componentType":5126,"count":36,"max":[0.0311279296875,0.9451904296875],"min":[0.0001220703125,0.8907470703125],"type":"VEC2"}],"materials":[{"pbrMetallicRoughness":{"metallicFactor":0,"roughnessFactor":1,"baseColorTexture":{"index":0}},"alphaMode":"MASK","alphaCutoff":0.05,"doubleSided":true,"name":"cart.png"}],"textures":[{"sampler":0,"source":0,"name":"cart.png"}],"samplers":[{"magFilter":9728,"minFilter":9728,"wrapS":33071,"wrapT":33071}],"images":[{"mimeType":"image/png","uri":"data:image/png;base64,"}],"meshes":[{"primitives":[{"mode":4,"attributes":{"POSITION":0,"NORMAL":1,"TEXCOORD_0":2},"material":0}]},{"primitives":[{"mode":4,"attributes":{"POSITION":3,"NORMAL":4,"TEXCOORD_0":5},"material":0}]},{"primitives":[{"mode":4,"attributes":{"POSITION":6,"NORMAL":7,"TEXCOORD_0":8},"material":0}]},{"primitives":[{"mode":4,"attributes":{"POSITION":9,"NORMAL":10,"TEXCOORD_0":11},"material":0}]},{"primitives":[{"mode":4,"attributes":{"POSITION":12,"NORMAL":13,"TEXCOORD_0":14},"material":0}]},{"primitives":[{"mode":4,"attributes":{"POSITION":15,"NORMAL":16,"TEXCOORD_0":17},"material":0}]},{"primitives":[{"mode":4,"attributes":{"POSITION":18,"NORMAL":19,"TEXCOORD_0":20},"material":0}]},{"primitives":[{"mode":4,"attributes":{"POSITION":21,"NORMAL":22,"TEXCOORD_0":23},"material":0}]},{"primitives":[{"mode":4,"attributes":{"POSITION":24,"NORMAL":25,"TEXCOORD_0":26},"material":0}]},{"primitives":[{"mode":4,"attributes":{"POSITION":27,"NORMAL":28,"TEXCOORD_0":29},"material":0}]},{"primitives":[{"mode":4,"attributes":{"POSITION":30,"NORMAL":31,"TEXCOORD_0":32},"material":0}]}]}